<svg width="62" height="60" viewBox="0 0 62 60" fill="none" xmlns="http://www.w3.org/2000/svg">
<rect opacity="0.1" x="0.368286" width="60.6498" height="60" rx="30" fill="#605BFF"/>
<path fill-rule="evenodd" clip-rule="evenodd" d="M29.3835 21.5186C28.7059 21.5186 28.1295 21.9844 27.9676 22.6122H33.4086C33.2468 21.9844 32.6704 21.5186 31.9928 21.5186H29.3835ZM34.9459 22.6126H36.9484C39.0722 22.6126 40.8016 24.3443 40.8016 26.4709C40.8016 26.4709 40.7409 27.3711 40.7207 28.6248C40.7186 28.724 40.6701 28.8212 40.5902 28.88C40.1037 29.2354 39.6588 29.5291 39.6183 29.5493C37.9395 30.6632 35.9886 31.447 33.9103 31.8369C33.7748 31.8632 33.6413 31.7934 33.5725 31.6739C32.99 30.6754 31.9018 30.0253 30.6882 30.0253C29.4827 30.0253 28.3844 30.6683 27.7847 31.6678C27.7149 31.7853 27.5834 31.8531 27.4489 31.8278C25.3878 31.4369 23.4369 30.6541 21.7682 29.5594L20.7973 28.8911C20.7164 28.8405 20.6659 28.7493 20.6659 28.6481C20.6355 28.1316 20.585 26.4709 20.585 26.4709C20.585 24.3443 22.3143 22.6126 24.4382 22.6126H26.4305C26.6226 21.1443 27.8666 20 29.3836 20H31.9928C33.5098 20 34.7538 21.1443 34.9459 22.6126ZM40.4576 30.8148L40.4172 30.8351C38.3743 32.192 35.9167 33.0933 33.3378 33.468C32.9738 33.5186 32.6097 33.2857 32.5085 32.9211C32.286 32.0908 31.568 31.5439 30.7084 31.5439H30.6982H30.678C29.8184 31.5439 29.1003 32.0908 28.8778 32.9211C28.7767 33.2857 28.4126 33.5186 28.0485 33.468C25.4696 33.0933 23.0121 32.192 20.9692 30.8351C20.9591 30.8249 20.8579 30.7642 20.777 30.8148C20.686 30.8655 20.686 30.987 20.686 30.987L20.7568 36.1515C20.7568 38.2781 22.4761 39.9996 24.5999 39.9996H36.7764C38.9002 39.9996 40.6195 38.2781 40.6195 36.1515L40.7004 30.987C40.7004 30.987 40.7004 30.8655 40.6093 30.8148C40.5588 30.7844 40.4981 30.7946 40.4576 30.8148ZM31.4466 35.058C31.4466 35.4833 31.1128 35.8175 30.6881 35.8175C30.2734 35.8175 29.9296 35.4833 29.9296 35.058V33.7517C29.9296 33.3365 30.2734 32.9922 30.6881 32.9922C31.1128 32.9922 31.4466 33.3365 31.4466 33.7517V35.058Z" fill="#605BFF"/>
</svg>
