<svg width="47" height="40" viewBox="0 0 47 40" fill="none" xmlns="http://www.w3.org/2000/svg">
<path d="M17.255 28.283L15.5 16H31.5L29.745 28.283C29.6769 28.7596 29.4391 29.1956 29.0754 29.511C28.7117 29.8264 28.2464 30 27.765 30H19.235C18.7536 30 18.2883 29.8264 17.9246 29.511C17.5609 29.1956 17.3231 28.7596 17.255 28.283ZM32.5 12H27.5V11C27.5 10.7348 27.3946 10.4804 27.2071 10.2929C27.0196 10.1054 26.7652 10 26.5 10H20.5C20.2348 10 19.9804 10.1054 19.7929 10.2929C19.6054 10.4804 19.5 10.7348 19.5 11V12H14.5C14.2348 12 13.9804 12.1054 13.7929 12.2929C13.6054 12.4804 13.5 12.7348 13.5 13C13.5 13.2652 13.6054 13.5196 13.7929 13.7071C13.9804 13.8946 14.2348 14 14.5 14H32.5C32.7652 14 33.0196 13.8946 33.2071 13.7071C33.3946 13.5196 33.5 13.2652 33.5 13C33.5 12.7348 33.3946 12.4804 33.2071 12.2929C33.0196 12.1054 32.7652 12 32.5 12Z" fill="#E42131"/>
</svg>
