<svg width="24" height="24" viewBox="0 0 24 24" fill="none" xmlns="http://www.w3.org/2000/svg">
<g clip-path="url(#clip0_532_10396)">
<path fill-rule="evenodd" clip-rule="evenodd" d="M12 24C9.62663 24 7.30655 23.2962 5.33316 21.9776C3.35977 20.6591 1.8217 18.7849 0.913452 16.5922C0.00520058 14.3995 -0.232441 11.9867 0.230582 9.65892C0.693604 7.33114 1.83649 5.19296 3.51472 3.51473C5.19296 1.8365 7.33115 0.693607 9.65892 0.230584C11.9867 -0.232439 14.3995 0.00519381 16.5922 0.913445C18.7849 1.8217 20.6591 3.35977 21.9776 5.33316C23.2962 7.30655 24 9.62663 24 12C24 15.1826 22.7357 18.2348 20.4853 20.4853C18.2349 22.7357 15.1826 24 12 24ZM19.2 12C19.2 12.4244 19.0314 12.8313 18.7314 13.1314C18.4313 13.4314 18.0244 13.6 17.6 13.6H6.40001C5.97566 13.6 5.56869 13.4314 5.26863 13.1314C4.96858 12.8313 4.80001 12.4244 4.80001 12C4.80001 11.5757 4.96858 11.1687 5.26863 10.8686C5.56869 10.5686 5.97566 10.4 6.40001 10.4H17.6C18.0244 10.4 18.4313 10.5686 18.7314 10.8686C19.0314 11.1687 19.2 11.5757 19.2 12Z" fill="#FF8F6B"/>
</g>
<defs>
<clipPath id="clip0_532_10396">
<rect width="24" height="24" fill="white"/>
</clipPath>
</defs>
</svg>
