<svg width="24" height="24" viewBox="0 0 24 24" fill="none" xmlns="http://www.w3.org/2000/svg">
<path d="M3.30637 21.2461H20.6937C22.793 21.2461 23.8477 20.2014 23.8477 18.1322V5.86773C23.8477 3.79855 22.793 2.75391 20.6937 2.75391H3.30637C1.21709 2.75391 0.152344 3.78848 0.152344 5.86773V18.1322C0.152344 20.2115 1.21709 21.2461 3.30637 21.2461ZM9.2126 16.1233C8.57981 16.1233 8.20816 15.6813 8.20816 15.0887V8.96151C8.20816 8.36888 8.57981 7.92689 9.2126 7.92689H9.85546C10.4381 7.92689 10.8197 8.36888 10.8197 8.96151V15.0887C10.8197 15.6813 10.4381 16.1233 9.85546 16.1233H9.2126ZM14.1947 16.1233C13.5619 16.1233 13.1802 15.6813 13.1802 15.0887V8.96151C13.1802 8.36888 13.5619 7.92689 14.1947 7.92689H14.8376C15.4202 7.92689 15.7818 8.36888 15.7818 8.96151V15.0887C15.7818 15.6813 15.4202 16.1233 14.8376 16.1233H14.1947Z" fill="#FFC327"/>
</svg>
