<svg width="24" height="24" viewBox="0 0 24 24" fill="none" xmlns="http://www.w3.org/2000/svg">
<path d="M23.175 4.20011C23.1 3.90011 22.8 3.75011 22.5 3.75011H20.25V1.50011C20.25 1.20011 20.1 0.900109 19.8 0.825109C19.5 0.675109 19.2 0.750109 18.975 0.975109L15.975 3.97511C15.825 4.12511 15.75 4.27511 15.75 4.50011V7.20011L11.475 11.4751C11.175 11.7751 11.175 12.2251 11.475 12.5251C11.625 12.6751 11.85 12.7501 12 12.7501C12.15 12.7501 12.375 12.6751 12.525 12.5251L16.8 8.25011H19.5C19.725 8.25011 19.875 8.17511 20.025 8.02511L23.025 5.02511C23.25 4.80011 23.325 4.50011 23.175 4.20011Z" fill="#17BF33"/>
<path d="M13.575 13.575C13.2 14.025 12.6 14.25 12 14.25C11.4 14.25 10.8 14.025 10.425 13.575C9.525 12.675 9.525 11.25 10.425 10.425L12.525 8.325C12.375 8.25 12.15 8.25 12 8.25C9.9 8.25 8.25 9.9 8.25 12C8.25 14.1 9.9 15.75 12 15.75C14.1 15.75 15.75 14.1 15.75 12C15.75 11.85 15.75 11.625 15.675 11.475L13.575 13.575Z" fill="#17BF33"/>
<path d="M21.075 9.075C20.7 9.525 20.1 9.75 19.5 9.75H17.4L16.875 10.275C17.1 10.8 17.175 11.4 17.175 12C17.175 14.925 14.85 17.25 11.925 17.25C9 17.25 6.675 14.925 6.675 12C6.675 9.075 9 6.75 11.925 6.75C12.525 6.75 13.125 6.9 13.65 7.05L14.25 6.6V4.5C14.25 3.9 14.475 3.3 14.925 2.925L15.675 2.175C14.475 1.725 13.275 1.5 12 1.5C6.225 1.5 1.5 6.225 1.5 12C1.5 17.775 6.225 22.5 12 22.5C17.775 22.5 22.5 17.775 22.5 12C22.5 10.725 22.275 9.525 21.825 8.325L21.075 9.075Z" fill="#17BF33"/>
</svg>
