<svg width="16" height="16" viewBox="0 0 16 16" fill="none" xmlns="http://www.w3.org/2000/svg">
<path fill-rule="evenodd" clip-rule="evenodd" d="M6.68687 11.6869C6.49163 11.8822 6.17504 11.8822 5.97978 11.6869L2.64645 8.35361C2.45118 8.15835 2.45118 7.84181 2.64645 7.64655L5.97978 4.31319C6.17504 4.11793 6.49163 4.11793 6.68687 4.31319C6.88213 4.50845 6.88213 4.82504 6.68687 5.0203L3.7071 8.00008L6.68687 10.9799C6.88213 11.1751 6.88213 11.4917 6.68687 11.6869Z" fill="#728197"/>
<g opacity="0.5">
<path d="M4.20709 8.50008H9.66665C10.3023 8.50008 11.2445 8.31355 12.0421 7.73915C12.8653 7.14648 13.5 6.16304 13.5 4.66675C13.5 4.3906 13.2761 4.16675 13 4.16675C12.7239 4.16675 12.5 4.3906 12.5 4.66675C12.5 5.83712 12.0235 6.52035 11.4579 6.92761C10.8667 7.35328 10.1422 7.50008 9.66665 7.50008H4.20709L3.70709 8.00008L4.20709 8.50008Z" fill="#728197"/>
<path d="M2.53794 8.1914C2.51349 8.13247 2.5 8.0678 2.5 8C2.5 8.06513 2.51265 8.13027 2.53794 8.1914Z" fill="#728197"/>
</g>
</svg>
