<svg width="24" height="24" viewBox="0 0 24 24" fill="none" xmlns="http://www.w3.org/2000/svg">
<path opacity="0.5" d="M3 10C3 6.22876 3 4.34315 4.17157 3.17157C5.34315 2 7.22876 2 11 2H13C16.7712 2 18.6569 2 19.8284 3.17157C21 4.34315 21 6.22876 21 10V14C21 17.7712 21 19.6569 19.8284 20.8284C18.6569 22 16.7712 22 13 22H11C7.22876 22 5.34315 22 4.17157 20.8284C3 19.6569 3 17.7712 3 14V10Z" fill="#5598F6"/>
<path d="M16.5189 16.5018C16.6939 16.3653 16.8526 16.2066 17.1701 15.8891L21.1275 11.9317C21.2231 11.8361 21.1793 11.6713 21.0515 11.6269C20.5844 11.4649 19.9767 11.1606 19.4083 10.5922C18.8399 10.0238 18.5356 9.41608 18.3736 8.94896C18.3292 8.82113 18.1644 8.77734 18.0688 8.87301L14.1114 12.8304C13.7939 13.1479 13.6352 13.3066 13.4987 13.4816C13.3377 13.6881 13.1996 13.9114 13.087 14.1478C12.9915 14.3481 12.9205 14.5611 12.7786 14.987L12.5951 15.5373L12.3034 16.4123L12.0299 17.2328C11.9601 17.4424 12.0146 17.6734 12.1708 17.8297C12.3271 17.9859 12.5581 18.0404 12.7677 17.9706L13.5882 17.6971L14.4632 17.4054L15.0135 17.2219C15.4393 17.08 15.6524 17.009 15.8527 16.9135C16.0891 16.8009 16.3124 16.6628 16.5189 16.5018Z" fill="#1C274C"/>
<path d="M22.3666 10.6922C23.2113 9.84754 23.2113 8.47812 22.3666 7.63348C21.522 6.78884 20.1526 6.78884 19.3079 7.63348L19.1807 7.76071C19.0579 7.88348 19.0023 8.05496 19.033 8.22586C19.0523 8.33336 19.088 8.49053 19.1531 8.67807C19.2832 9.05314 19.5289 9.54549 19.9918 10.0083C20.4546 10.4712 20.947 10.7169 21.322 10.847C21.5096 10.9121 21.6667 10.9478 21.7742 10.9671C21.9451 10.9978 22.1166 10.9422 22.2394 10.8194L22.3666 10.6922Z" fill="#1C274C"/>
<path fill-rule="evenodd" clip-rule="evenodd" d="M7.25 9C7.25 8.58579 7.58579 8.25 8 8.25H14.5C14.9142 8.25 15.25 8.58579 15.25 9C15.25 9.41421 14.9142 9.75 14.5 9.75H8C7.58579 9.75 7.25 9.41421 7.25 9ZM7.25 13C7.25 12.5858 7.58579 12.25 8 12.25H11C11.4142 12.25 11.75 12.5858 11.75 13C11.75 13.4142 11.4142 13.75 11 13.75H8C7.58579 13.75 7.25 13.4142 7.25 13ZM7.25 17C7.25 16.5858 7.58579 16.25 8 16.25H9.5C9.91421 16.25 10.25 16.5858 10.25 17C10.25 17.4142 9.91421 17.75 9.5 17.75H8C7.58579 17.75 7.25 17.4142 7.25 17Z" fill="#1C274C"/>
</svg>
