<svg width="24" height="15" viewBox="0 0 24 15" fill="none" xmlns="http://www.w3.org/2000/svg">
<g clip-path="url(#clip0_532_10925)">
<path d="M9.9737 7.06637C9.9737 5.8759 10.9493 4.92351 12.1688 4.92351C13.3883 4.92351 14.3639 5.8759 14.3639 7.06637C14.3639 8.25685 13.3883 9.20923 12.1688 9.20923C10.9493 9.20923 9.9737 8.25685 9.9737 7.06637ZM4.36395 9.20923C5.58346 9.20923 6.55907 8.25685 6.55907 7.06637C6.55907 5.8759 5.58346 4.92351 4.36395 4.92351C3.14443 4.92351 2.16882 5.8759 2.16882 7.06637C2.16882 8.25685 3.14443 9.20923 4.36395 9.20923ZM19.9737 9.20923C21.1932 9.20923 22.1688 8.25685 22.1688 7.06637C22.1688 5.8759 21.1932 4.92351 19.9737 4.92351C18.7542 4.92351 17.7786 5.8759 17.7786 7.06637C17.7786 8.25685 18.7542 9.20923 19.9737 9.20923Z" fill="#8B83BA"/>
</g>
<defs>
<clipPath id="clip0_532_10925">
<path d="M0 14.6309L0 0.000239291L16.6847 0.000238296C20.7248 0.000238055 24 3.27541 24 7.31555C24 11.3557 20.7248 14.6309 16.6847 14.6309L0 14.6309Z" fill="white"/>
</clipPath>
</defs>
</svg>
